# xmcd CD database file
#
# Track frame offsets:
#	150
#	16902
#	35867
#	55317
#	69735
#	83375
#	104057
#	123257
#	139605
#	153275
#	165787
#	196460
#	207067
#	219845
#	241605
#
# Disc length: 3571 seconds
#
# Revision: 3
# Processed by: cddbd v1.5.2PL0 Copyright (c) Steve Scherf et al.
# Submitted via: CDex 1.70beta3
#
DISCID=be0df10f
DTITLE=Syrup16g - Delayedead
DYEAR=2004
DGENRE=Rock
TTITLE0=クロール
TTITLE1=Inside out
TTITLE2=Sonic Disorder
TTITLE3=前頭葉
TTITLE4=Heaven
TTITLE5=これで終わり
TTITLE6=翌日
TTITLE7=I Hate Music
TTITLE8=もういいって
TTITLE9=真空
TTITLE10=エビセン
TTITLE11=Breezing
TTITLE12=Good-bye myself
TTITLE13=明日を落としても
TTITLE14=きこえるかい
EXTD=YEAR: 2004
EXTT0=
EXTT1=
EXTT2=
EXTT3=
EXTT4=
EXTT5=
EXTT6=
EXTT7=
EXTT8=
EXTT9=
EXTT10=
EXTT11=
EXTT12=
EXTT13=
EXTT14=
PLAYORDER=
